<?xml version="1.0" encoding="UTF-8"?> <svg xmlns="http://www.w3.org/2000/svg" width="47" height="48" viewBox="0 0 47 48" fill="none"> <path d="M9.6915 0.618164H36.8277C42.1803 0.618164 46.5192 4.95705 46.5192 10.3097V37.4458C46.5192 42.7985 42.1803 47.1373 36.8277 47.1373H9.6915C4.33888 47.1373 0 42.7985 0 37.4458V10.3097C0 4.95705 4.33888 0.618164 9.6915 0.618164Z" fill="url(#paint0_linear_636_7023)"></path> <path d="M15.2874 10.6578C14.667 9.34101 14.0141 9.31444 13.4241 9.29135C12.941 9.27148 12.3888 9.27297 11.837 9.27297C11.2848 9.27297 10.3875 9.47138 9.62905 10.2622C8.86982 11.0539 6.73047 12.9669 6.73047 16.8577C6.73047 20.7487 9.69795 24.5089 10.1116 25.0371C10.5258 25.5642 15.8404 33.8042 24.2574 36.9742C31.2527 39.6085 32.6762 39.0846 34.1944 38.9525C35.7129 38.8209 39.094 37.04 39.7838 35.1933C40.4742 33.3468 40.4742 31.7641 40.2672 31.4333C40.0602 31.1038 39.508 30.9059 38.6799 30.5106C37.8515 30.115 33.7802 28.2018 33.0213 27.9378C32.262 27.6741 31.7101 27.5425 31.1578 28.3344C30.6055 29.125 29.0197 30.9059 28.5364 31.4333C28.0535 31.962 27.5702 32.0278 26.7423 31.6322C25.9137 31.2354 23.2468 30.4013 20.0827 27.7074C17.6209 25.6112 15.959 23.0225 15.4759 22.2306C14.9928 21.44 15.4241 21.0114 15.8394 20.6174C16.2114 20.263 16.6678 19.6939 17.0822 19.2323C17.4951 18.7704 17.6329 18.4409 17.909 17.9135C18.1854 17.3856 18.0471 16.9237 17.8404 16.5282C17.6329 16.1326 16.0237 12.2214 15.2874 10.6578Z" fill="white"></path> <defs> <linearGradient id="paint0_linear_636_7023" x1="23.2596" y1="58.6441" x2="23.2596" y2="-12.5158" gradientUnits="userSpaceOnUse"> <stop stop-color="#1BB120"></stop> <stop offset="0.278" stop-color="#1EC924"></stop> <stop offset="0.569" stop-color="#25EE2C"></stop> <stop offset="0.82" stop-color="#78FB65"></stop> <stop offset="1" stop-color="#4BF346"></stop> </linearGradient> </defs> </svg> 