<?xml version="1.0" encoding="UTF-8"?> <svg xmlns="http://www.w3.org/2000/svg" width="47" height="47" viewBox="0 0 47 47" fill="none"> <path d="M9.6915 0H36.8277C42.1803 0 46.5192 4.33888 46.5192 9.6915V36.8277C46.5192 42.1803 42.1803 46.5192 36.8277 46.5192H9.6915C4.33888 46.5192 0 42.1803 0 36.8277V9.6915C0 4.33888 4.33888 0 9.6915 0Z" fill="url(#paint0_linear_636_7050)"></path> <path d="M12.6018 22.7993C18.1415 20.3863 21.8346 18.7954 23.6812 18.0268C28.9596 15.832 30.0551 15.4508 30.7706 15.4379C30.9279 15.4353 31.2782 15.4742 31.5068 15.659C31.6968 15.8149 31.7502 16.0257 31.777 16.1737C31.8007 16.3215 31.8334 16.6585 31.8066 16.9215C31.5216 19.9259 30.2837 27.2165 29.6543 30.5816C29.3901 32.0054 28.8646 32.4828 28.357 32.5294C27.2526 32.6309 26.4154 31.8003 25.3466 31.0999C23.6752 30.0036 22.7312 29.3214 21.1073 28.2517C19.231 27.0155 20.4482 26.336 21.517 25.2257C21.796 24.935 26.6588 20.5131 26.7509 20.112C26.7627 20.0618 26.7746 19.8748 26.6618 19.7762C26.552 19.6774 26.3887 19.7112 26.2699 19.7379C26.1007 19.7759 23.4318 21.5418 18.2543 25.0351C17.4973 25.5558 16.8115 25.8096 16.194 25.7963C15.5171 25.7817 14.2109 25.4127 13.2401 25.0974C12.0526 24.7106 11.1056 24.5061 11.1887 23.8491C11.2302 23.5071 11.7023 23.1571 12.6018 22.7993Z" fill="white"></path> <circle cx="23" cy="23" r="18.5" stroke="white"></circle> <defs> <linearGradient id="paint0_linear_636_7050" x1="23.2596" y1="58.0259" x2="23.2596" y2="-13.1339" gradientUnits="userSpaceOnUse"> <stop stop-color="#1F98D7"></stop> <stop offset="0.278" stop-color="#149BE1"></stop> <stop offset="0.369792" stop-color="#2AABEE"></stop> <stop offset="0.82" stop-color="#2AABEE"></stop> <stop offset="1" stop-color="#2AABEE"></stop> </linearGradient> </defs> </svg> 