<?xml version="1.0" encoding="UTF-8"?> <svg xmlns="http://www.w3.org/2000/svg" width="47" height="47" viewBox="0 0 47 47" fill="none"> <path d="M9.6915 0H36.8277C42.1803 0 46.5192 4.33888 46.5192 9.6915V36.8277C46.5192 42.1803 42.1803 46.5192 36.8277 46.5192H9.6915C4.33888 46.5192 0 42.1803 0 36.8277V9.6915C0 4.33888 4.33888 0 9.6915 0Z" fill="url(#paint0_linear_636_7044)"></path> <path d="M24 40L23.9984 40C20.8182 40.0051 17.694 39.1635 14.9467 37.5616L14.5844 37.3503L14.1798 37.4607L6.43184 39.5748L8.54133 31.8234L8.6514 31.4189L8.44018 31.0569C6.83697 28.3088 5.99471 25.1832 6.00003 22.0017V22C6.00003 12.0586 14.0586 4 24 4C33.9414 4 42 12.0586 42 22C42 31.9414 33.9414 40 24 40Z" stroke="white" stroke-width="2"></path> <path d="M19.4534 12.6876C19.0776 11.8483 18.6821 11.8313 18.3247 11.8167C18.0321 11.804 17.6975 11.8049 17.3632 11.8049C17.0286 11.8049 16.485 11.9314 16.0256 12.4355C15.5657 12.94 14.2695 14.1592 14.2695 16.6391C14.2695 19.1191 16.0673 21.5156 16.3179 21.8522C16.5689 22.1882 19.7885 27.44 24.8877 29.4605C29.1256 31.1394 29.988 30.8055 30.9078 30.7213C31.8276 30.6374 33.876 29.5023 34.2939 28.3254C34.7121 27.1486 34.7121 26.1398 34.5867 25.9289C34.4613 25.7189 34.1267 25.5928 33.6251 25.3409C33.1232 25.0887 30.6568 23.8694 30.197 23.7011C29.737 23.533 29.4026 23.4492 29.0681 23.9539C28.7335 24.4578 27.7728 25.5928 27.4799 25.9289C27.1875 26.2659 26.8946 26.3078 26.3931 26.0558C25.8911 25.8028 24.2754 25.2712 22.3586 23.5542C20.8672 22.2182 19.8603 20.5683 19.5677 20.0636C19.275 19.5597 19.5364 19.2865 19.7879 19.0354C20.0133 18.8095 20.2898 18.4468 20.5408 18.1526C20.791 17.8582 20.8744 17.6482 21.0417 17.312C21.2091 16.9755 21.1254 16.6812 21.0002 16.4291C20.8745 16.1769 19.8995 13.6841 19.4534 12.6876Z" fill="white"></path> <defs> <linearGradient id="paint0_linear_636_7044" x1="23.2596" y1="58.0259" x2="23.2596" y2="-13.1339" gradientUnits="userSpaceOnUse"> <stop stop-color="#60D669"></stop> <stop offset="0.208333" stop-color="#60D669"></stop> <stop offset="0.278" stop-color="#1EC924"></stop> <stop offset="0.569" stop-color="#25EE2C"></stop> <stop offset="0.82" stop-color="#78FB65"></stop> <stop offset="1" stop-color="#4BF346"></stop> </linearGradient> </defs> </svg> 